<?xml version="1.0" encoding="UTF-8"?>
<svg id="Layer_1" data-name="Layer 1" xmlns="http://www.w3.org/2000/svg" viewBox="0 0 322.11 267.34">
  <defs>
    <style>
      .cls-1 {
        fill: #c9a761;
      }

      .cls-2 {
        fill: #3a2048;
      }
    </style>
  </defs>
  <polygon class="cls-1" points="3.7 72.72 2.28 75.58 2.28 86.42 5.12 86.42 5.12 75.58 3.7 72.72"/>
  <path class="cls-2" d="M101.65,174.8c11.18,0,18.98-3.22,23.72-9.15,4.91-5.93,6.78-14.23,6.78-25.25v-44.56h-5.76v44.56c0,20.16-6.78,29.14-22.36,29.14-12.2,0-18.3-9.66-18.3-25.58l-.17-33.04c0-5.76-.51-9.49-2.03-11.86-1.69-2.2-4.24-3.22-8.3-3.22h-12.71v3.56c6.95,0,8.13,4.58,8.13,11.52v29.48c0,22.87,10.34,34.39,31,34.39Z"/>
  <path class="cls-2" d="M198.04,158.01l-12.2-21.86c4.24-.98,9.01-2.84,12.7-5.73,3.57-3.05,5.93-7.29,5.93-13.39s-2.19-10.68-5.56-13.9c-3.41-3.05-7.98-4.91-12.54-5.93-4.6-1.02-9.15-1.36-12.89-1.36h-31.87v3.55h1.19c6.96,0,8.15,4.58,8.15,11.51v63.9h15.07v-37.63h4.58l11.53,20.83c3.55,6.46,7.27,10.51,10.99,13.23,3.55,2.55,7.29,3.57,11.35,3.57,2.9,0,6.6-.67,7.81-1.19v-2.9c-1.71-.31-3.72-.98-6.27-2.86-2.38-1.86-5.27-4.93-7.98-9.84ZM183.48,129.07c-3.05,2.36-6.94,3.38-10.68,3.38h-6.77v-31.2c.69-.17,1.53-.17,2.19-.31,1.38-.36,3.41-.52,5.27-.52,3.36,0,7.1,1.02,9.99,3.55,2.9,2.55,4.91,6.62,4.91,12.56s-1.88,10.15-4.91,12.54Z"/>
  <path class="cls-2" d="M234.98,159.89v-64.04h-14.91v64.04c0,5.76.51,9.49,2.2,11.86,1.52,2.2,4.07,3.05,8.13,3.05h13.89v-3.39h-1.19c-6.95,0-8.13-4.74-8.13-11.52Z"/>
  <path class="cls-2" d="M3.31,189.56c-1.39,1.73-1.91,4.16-1.91,6.58v9.87h3.46c0-10.39,5.2-14.03,13.51-14.03h8.49v74.67h15.25v-74.67h24.6v-5.37H11.45c-4.16,0-6.58,1.21-8.14,2.94Z"/>
  <path class="cls-2" d="M120.42,261.97h-20.1v-35.34h30.66v-5.2h-30.66v-29.45h18.88c9.53,0,14.73,4.16,14.73,14.03h3.64v-9.87c0-2.43-.52-4.85-1.9-6.58-1.56-1.73-3.98-2.94-8.14-2.94h-51.97v3.64h1.21c7.1,0,8.31,4.68,8.31,11.78v65.31h43.48c6.58,0,8.49-3.12,10.22-8.32l3.46-9.18-3.12-1.21c-4.16,10.22-10.05,13.34-18.71,13.34Z"/>
  <path class="cls-2" d="M224.19,244.65c-2.68,5.16-6.33,9.19-10.53,12.01-1.65,1.1-3.41,2.03-5.23,2.75-1.72.69-3.47,1.2-5.33,1.55v-.02c1.85-.35,3.61-.85,5.34-1.54h-5.34v-20.91l4.54-4.54,1.51-1.55,3.03-3.03.17-.1c1.82,1,4.13.79,5.64-.69,1.79-1.86,1.75-4.89-.14-6.74-.52-.55-1.14-.93-1.79-1.17-1-.38-2.1-.45-3.03-.1-.72.21-1.38.59-1.96,1.1-1.51,1.48-1.69,3.78-.69,5.61l-3.17,3.2-3.03,3.03-3.82,3.85v22.05h-12.7c.53.23,1.1.43,1.66.63-.56-.2-1.13-.39-1.66-.62-1.65-.76-3.17-1.69-4.54-2.75-1.99-1.58-3.75-3.54-5.2-5.78-2.17-3.37-3.65-7.33-4.68-11.56v-.03h3.44c.52,2.06,2.37,3.54,4.51,3.54,2.58,0,4.68-2.2,4.68-4.89s-2.1-4.85-4.68-4.85c-2.13,0-3.99,1.44-4.51,3.54h-3.99v-.03c-.59-3.2-.86-6.57-.86-9.98,0-.96.07-1.86.1-2.75v-.03h7.47l3.03,3.06,6.88,6.88v8.88c-1.96.58-3.47,2.44-3.47,4.61,0,2.65,2.2,4.78,4.85,4.78s4.89-2.13,4.89-4.78c0-2.17-1.51-4.03-3.48-4.61v-10.01l-3.89-3.82-7.67-7.67h-8.5v-.03c.38-7.16,1.69-12.9,3.65-17.37l4.78,3.99.02.02h0,0s0,.02,0,.02l.62.55.08.07,5.73,5.06h0s0,0,0,0c-1.03,1.86-.83,4.16.72,5.68,1.86,1.86,4.89,1.79,6.78-.1,1.89-1.89,1.93-4.92.07-6.74-1.48-1.55-3.75-1.75-5.61-.76l-.03-.07-.14-.1-11.53-10.7c.72-1.2,1.45-2.31,2.27-3.3.34-.41.69-.76,1.03-1.13,1.03-1.03,2.06-1.96,3.2-2.72,4.02-2.82,8.84-3.96,14.14-3.96s9.77,1.38,13.42,3.96c1.13.79,2.2,1.69,3.17,2.72.52.58,1.03,1.13,1.51,1.75.38.48.72,1.03,1.07,1.51,2.13,3.34,3.75,7.43,4.75,12.25h3.44c0-6.92.21-13.83-2.92-17.82-4.33-5.2-13.18-9.53-27.87-9.53-11.28,0-20.99,4.68-27.9,12.11-6.95,7.78-11.11,18.34-11.11,30.14s3.65,21.33,10.22,28.59c6.57,7.12,16.31,11.63,28.8,11.63,4.78,0,9.01-.52,12.8-1.55,1.55-.41,3.06-.96,4.51-1.58,6.92-2.99,12.18-8.22,16.44-15.93l-3.99-3.13ZM130.94,208.69s-.01.06,0,.09c-.01-.1-.03-.2-.06-.3.03.07.05.14.07.21ZM130.62,209.83c.12-.12.21-.26.26-.42,0,0,0,0,0,0-.04.15-.12.29-.25.41h-.02s0,0,0,0ZM108.57,217.29s-.02-.05-.03-.08c.06.11.12.22.2.31-.07-.07-.13-.13-.17-.23ZM110.5,217.55c-.04.06-.12.1-.17.12l-.02.02c-.06.06-.1.1-.21.12-.06.04-.17.06-.23.06-.04.02-.06.02-.1.02-.06.02-.1.02-.12.02-.08,0-.19-.02-.27-.04-.1,0-.17-.04-.23-.06,0,0-.02,0-.04-.02,0,0-.02,0-.02-.02-.02,0-.02-.02-.04-.02-.08-.04-.15-.08-.21-.17-.02,0-.04-.02-.08-.04v-.02c.22.23.53.38.88.38s.64-.14.86-.37h0ZM110.67,217.35s-.08.09-.12.14c.08-.09.15-.19.2-.3-.02.05-.05.11-.08.17ZM110.85,216.83c0,.06-.02.1-.04.17v.02s-.02.04-.03.06c.05-.14.09-.29.09-.44,0,.07,0,.14-.02.19ZM110.81,216.23v.02s.02.06.02.08c.02.04.02.08.02.14.02.06.02.1.02.15h0c0-.17-.04-.32-.09-.47,0,.02.02.05.03.08ZM109.26,215.42l.02-.02s.08-.02.1-.04c.08,0,.17-.02.27-.02.08,0,.17,0,.25.02.23.04.44.17.6.35.06.06.1.12.17.19.04.06.07.13.09.21-.19-.45-.62-.76-1.12-.76-.14,0-.27.04-.4.08,0,0,.01,0,.02,0ZM108.53,216.06c.02-.06.06-.14.1-.21.02,0,.04-.02.06-.04.02-.04.04-.08.06-.1.08-.06.19-.15.29-.21.02-.01.03-.01.05-.02-.25.13-.45.34-.58.6,0,0,0-.01,0-.02ZM108.41,216.44c.02-.06.04-.12.06-.19v-.02s0-.01,0-.02c-.05.13-.08.27-.08.42,0,.13.04.24.07.36-.02-.04-.04-.1-.06-.15-.02-.06-.02-.12-.02-.21,0-.06,0-.12.02-.19ZM114.21,221.72s0,0,0,0c0-.01.02-.02.03-.04,0,.01-.02.02-.03.04ZM114.64,223.27s-.08-.08-.12-.12c.09.08.19.14.3.2-.06-.03-.12-.04-.18-.08ZM114.97,223.42s-.03-.01-.04-.02c.09.03.18.04.27.05-.07,0-.15-.01-.23-.04ZM116.63,221.92s.02.08.02.15c.02.06.02.1.02.17,0,.35-.15.66-.39.89.24-.23.38-.54.38-.89,0-.17-.04-.33-.1-.48.03.06.07.11.07.17ZM116.09,221.18c.08.04.17.08.21.17.1.08.17.21.23.31.01.02.02.05.03.07-.11-.26-.32-.46-.58-.6.03.02.08.02.11.04ZM114.89,221.05c.06-.04.12-.06.23-.06.06-.04.14-.04.25-.04.04,0,.08,0,.14.02.04-.02.06,0,.1.02.02,0,.04,0,.06.02.03,0,.04.02.06.03-.12-.04-.24-.07-.37-.07-.18,0-.34.04-.49.1,0,0,0,0,0,0ZM114.84,221.09c-.11.05-.21.12-.31.2.04-.04.07-.09.13-.12.05-.03.11-.06.18-.09ZM116.67,202.52s.02.06.04.09c-.03-.06-.07-.12-.12-.18.03.03.06.06.08.09ZM116.32,202.17s.06.04.1.06l.02.02.02.03c-.07-.06-.15-.11-.23-.15.02.01.06.01.08.03ZM115.48,201.77s.06.03.09.04c-.1-.03-.21-.06-.32-.06.08,0,.15,0,.23.02ZM114.83,202.25s.06-.06.1-.08c.06-.05.14-.08.22-.11.02-.01.04-.02.07-.03.1-.03.22-.04.34-.05-.14,0-.28.03-.41.08-.14.06-.28.15-.4.27.02-.02.04-.05.08-.07ZM114.56,202.56c.04-.06.09-.13.15-.19-.09.09-.15.2-.21.31.02-.04.03-.09.06-.12ZM114.71,204.12c.28.28.66.38,1.03.33-.22.03-.43.03-.64-.05-.12-.06-.27-.15-.39-.27-.1-.12-.19-.23-.25-.37,0-.01-.01-.03-.02-.04.06.15.15.29.27.41ZM114.39,202.91s.03-.06.04-.09c-.04.12-.07.25-.08.38,0-.09.02-.2.04-.28ZM114.43,203.7c-.02-.05-.03-.11-.06-.17-.02-.1-.02-.18-.02-.28,0,.15.03.3.08.44Z"/>
  <path class="cls-2" d="M311.34,251.93v-65.31h-15.25v34.82h-31.88v-19.4c0-5.89-.52-9.7-2.08-12.13-1.73-2.25-4.33-3.29-8.49-3.29h-14.21v3.64h1.21c7.1,0,8.32,4.68,8.32,11.78v65.14h15.24v-40.54h31.88v25.29c0,5.89.52,9.7,2.25,12.13,1.56,2.25,4.16,3.12,8.32,3.12h14.03v-3.46h-1.04c-7.1,0-8.32-4.85-8.32-11.78Z"/>
  <polygon class="cls-2" points="20.65 66.59 35.49 63.05 44.28 60.97 55.08 58.4 59.28 47 62.2 39.07 69.91 18.12 70.39 16.89 74.66 5.27 19.57 18.36 0 71.49 19.43 66.86 20.65 66.59"/>
  <path class="cls-2" d="M26.77,168.79c-.98,0-1.92-.05-2.83-.12-11.14-.86-17.68-7.09-19.87-21.72H.85v13.34c0,4.17,3.39,7.67,8.3,10,4.12,1.96,9.3,3.2,14.66,3.55,1.04.07,2.08.12,3.13.12,18.47,0,28.8-8.17,28.8-21.17,0-8.33-4.57-13.5-15.08-19.5l-9.21-5.46-4.85-2.88c-3.73-2-6.61-3.83-8.64-6-2.2-2.17-3.39-4.5-3.39-7.67,0-6.84,5.08-11,13.38-11,5.5,0,10.02,1.35,13.55,4.4,3.97,3.42,6.7,8.98,8.13,17.28h3.22v-13.17c0-4.24-3.25-7.67-7.98-10-.11-.05-.21-.12-.32-.17-5.08-2.33-11.52-3.5-17.79-3.5-5.34,0-10,.88-13.85,2.48-7.52,3.12-11.91,9.03-11.91,16.86,0,3.29.59,6.22,1.95,8.93,2.07,4.15,5.93,7.78,12.29,11.41l12.26,7.18,1.98,1.16c7.28,4.5,11.86,8.17,11.86,14.67,0,7.34-5.76,11-14.57,11Z"/>
  <path class="cls-1" d="M146.39,30.59h-.04l.06.36c4.08-.38,8.23-.59,12.39-.59,1.67,0,3.3.02,4.95.08l.04-.42.15-29.92c-1.69-.08-3.41-.1-5.14-.1-5.45,0-10.82.29-16.15.86l3.68,29.4.06.33Z"/>
  <path class="cls-1" d="M187.51,33.2l5.77-29.34c-7.06-1.59-14.27-2.72-21.61-3.32l-1.67,29.88-.04.42h-.12c5.93.5,11.83,1.44,17.53,2.78l.15-.42Z"/>
  <path class="cls-1" d="M101.36,43.86l.15.23c5.62-2.86,11.47-5.31,17.51-7.31l-.08-.29-10.84-27.85c-7.31,2.59-14.36,5.66-21.19,9.28l14.27,25.64.19.31Z"/>
  <path class="cls-1" d="M254.09,72.61c4.23,4.55,8.19,9.4,11.81,14.54l1.7-1.21,21.87-16.63c-4.42-6.26-9.24-12.21-14.41-17.8l-20.09,20.19-.88.92Z"/>
  <path class="cls-1" d="M208.97,40.7l.23-.38,11.16-27.56c-6.37-2.76-12.89-5.1-19.64-6.98l-7.17,28.73-.04.23h-.02l-.12.4-.25-.04c5.43,1.53,10.72,3.41,15.86,5.6Z"/>
  <path class="cls-1" d="M269.84,92.15l-.31.25c2.62,4.02,5.05,8.21,7.29,12.53l.04-.17,2.03-4.69,1.99-4.42h5.28l.23.52,2.47,6.41,1.11,2.81.23-.13,15.35-7.98c-3.46-7.56-7.44-14.79-11.83-21.66l-23.67,16.4-.21.13Z"/>
  <path class="cls-1" d="M115.36,6.29l8.71,26.18.73,2.19.1.31c4.99-1.4,10.09-2.49,15.27-3.24l-.04-.38-5.01-29.5c-6.75,1.04-13.31,2.51-19.77,4.43Z"/>
  <path class="cls-1" d="M61.07,75.37s.02-.02.04-.04l-.65-.52-10.82-8.46-7.96,1.9-13.52,3.22-1.13.27c-.65.94-1.3,1.92-1.9,2.88l24.8,14.96.06.02c2.22-3.26,4.53-6.39,7-9.38,1.32-1.65,2.7-3.28,4.07-4.85Z"/>
  <path class="cls-1" d="M230.83,52.18l.15-.23,15.75-24.68c-6.21-4.24-12.7-8.02-19.45-11.33l-12.37,26.73-.1.23-.23.4c5.54,2.7,10.87,5.77,15.98,9.24l.27-.36Z"/>
  <path class="cls-1" d="M65.61,70.31l-.02.02.1.08c2.57-2.61,5.22-5.12,7.96-7.52,1.55-1.36,3.11-2.67,4.74-3.93l-.1-.19-.19-.23-11.14-12.87-.04-.02-3.22,6.9-4.68,9.84-.9,1.96,7.06,5.62.42.33Z"/>
  <path class="cls-1" d="M252.79,31.39l-16.65,23.52-.08.13-.54.88c4.9,3.67,9.55,7.69,13.97,11.98l.29-.27.15-.15,19.94-21.32c-5.36-5.34-11.08-10.26-17.07-14.77Z"/>
  <path class="cls-1" d="M70.31,39.18l12.7,15.4h.02l.44.54c4.01-2.9,8.15-5.62,12.47-8.02l-.81-1.36-14.94-24.07c-1.9,1.34-10.55,16.72-10.55,16.72l.67.79Z"/>
  <path class="cls-2" d="M141.69,31.11c-.54.08-1.04.17-1.55.25l.04.02,1.5-.27Z"/>
  <path class="cls-1" d="M292.52,111.74l3.47,8.63,2.59,6.42,1.69,4.2,15.55-5.24c-1.96-7.38-4.39-14.54-7.23-21.46l-15.84,7.36-.23.1Z"/>
  <path class="cls-1" d="M305.94,145.07l2.72,6.75,3.22,8.05c2.4,5.98,5.85,8.96,10.24,10.18-.25-12.58-1.76-24.83-4.39-36.59l-14.77,4.2,2.99,7.42Z"/>
  <path class="cls-1" d="M29.66,91.6c.78.05,1.57.09,2.37.16.05,0,.07.02.11.02h.02c.55.07,1.08.14,1.66.23.88.12,1.75.28,2.63.46.42.09.76.16,1.13.25.37.07.71.16,1.06.28.62.14,1.27.32,1.87.51.51.16,1.06.35,1.57.55.3.09.6.23.9.32.55.21,1.06.44,1.57.69.12.02,1.15.85,1.29.88.39-.69.32-.55.48-.81l-1.06-.62-.02-.02-9.15-5.05-.02-.02h-.02l-15.21-7.95c-2.88,4.79-5.51,7.45-7.93,12.56,3.87-1.66,8.53-2.56,13.88-2.56.97,0,1.91.02,2.88.12Z"/>
  <path class="cls-2" d="M308.87,159.6l-2.86-7.08-2.4-6-3.24-8.04h0s-2.63-6.55-2.63-6.55h0s0,0,0,0v-.02l-.63-1.57-2.3-5.68-4.68-11.61h0s-.51-1.26-.51-1.26l-1.15-2.89-.73-2.15-1.53-4.51-.19-.48h-4.68l-1.8,4.99-1.65,4.1-.08.17-26.66,61.85h5.41l8.42-21.21h27.04l.69,2.32,1.71,5.62c1.82,6.06,5.7,9.19,9.47,11.01,3.49,1.8,9.55,4.2,12.87,4.2.94,0,2.24-.15,3.36-.31,0-1.07-.02-2.09-.06-3.16-3.87-1.09-9.11-4.51-11.2-11.74ZM267.08,147.17l11.87-26.77,11.3,26.77h-23.17Z"/>
</svg>