<?xml version="1.0" encoding="UTF-8"?>
<svg id="Layer_1" data-name="Layer 1" xmlns="http://www.w3.org/2000/svg" viewBox="0 0 612.01 490.31">
  <defs>
    <style>
      .cls-1 {
        fill: #c9a761;
      }

      .cls-2 {
        fill: #3a2048;
      }
    </style>
  </defs>
  <polygon class="cls-1" points="7.03 138.18 4.33 143.6 4.33 164.21 9.72 164.21 9.72 143.6 7.03 138.18"/>
  <path class="cls-2" d="M193.14,332.13c21.25,0,36.05-6.12,45.07-17.38,9.33-11.27,12.88-27.04,12.88-47.97v-84.66h-10.95v84.66c0,38.31-12.87,55.37-42.49,55.37-23.18,0-34.76-18.35-34.76-48.61l-.32-62.77c0-10.95-.97-18.03-3.86-22.54-3.22-4.18-8.05-6.11-15.77-6.11h-24.14v6.76c13.2,0,15.45,8.69,15.45,21.89v56.01c0,43.46,19.64,65.35,58.91,65.35Z"/>
  <path class="cls-2" d="M376.28,300.22l-23.19-41.53c8.06-1.87,17.11-5.4,24.14-10.88,6.79-5.8,11.27-13.86,11.27-25.45s-4.17-20.29-10.56-26.4c-6.47-5.8-15.17-9.33-23.82-11.28-8.73-1.95-17.39-2.58-24.5-2.58h-60.54v6.75h2.26c13.22,0,15.48,8.69,15.48,21.88v121.41h28.62v-71.5h8.69l21.92,39.58c6.75,12.27,13.82,19.97,20.88,25.13,6.75,4.84,13.86,6.79,21.56,6.79,5.52,0,12.55-1.27,14.85-2.26v-5.52c-3.25-.6-7.07-1.87-11.91-5.44-4.53-3.53-10-9.37-15.17-18.7ZM348.61,245.24c-5.8,4.49-13.18,6.43-20.29,6.43h-12.86v-59.27c1.31-.32,2.9-.32,4.17-.6,2.62-.67,6.47-.99,10-.99,6.39,0,13.5,1.95,18.98,6.75,5.52,4.84,9.33,12.59,9.33,23.86s-3.57,19.29-9.33,23.82Z"/>
  <path class="cls-2" d="M446.47,303.8v-121.68h-28.33v121.68c0,10.95.97,18.03,4.18,22.54,2.9,4.18,7.72,5.79,15.45,5.79h26.4v-6.44h-2.25c-13.2,0-15.45-9.01-15.45-21.89Z"/>
  <path class="cls-2" d="M6.29,348.32c-2.63,3.16-3.62,7.59-3.62,12.02v18.02h6.58c0-18.97,9.88-25.62,25.67-25.62h16.13v136.3h28.97v-136.3h46.74v-9.8H21.76c-7.9,0-12.51,2.21-15.47,5.37Z"/>
  <path class="cls-2" d="M228.8,480.51h-38.18v-64.51h58.26v-9.49h-58.26v-53.76h35.88c18.1,0,27.98,7.59,27.98,25.62h6.91v-18.02c0-4.43-.99-8.86-3.62-12.02-2.96-3.16-7.57-5.37-15.47-5.37h-98.75v6.64h2.3c13.49,0,15.8,8.54,15.8,21.51v119.22h82.62c12.51,0,16.13-5.69,19.42-15.18l6.58-16.76-5.92-2.21c-7.9,18.66-19.09,24.35-35.55,24.35Z"/>
  <path class="cls-2" d="M425.95,448.89c-5.1,9.42-12.03,16.77-20,21.92-3.14,2.01-6.47,3.71-9.94,5.02-3.27,1.26-6.6,2.2-10.13,2.83v-.03c3.52-.63,6.87-1.55,10.15-2.81h-10.15v-38.17l8.63-8.29,2.88-2.83,5.75-5.53.33-.19c3.46,1.82,7.85,1.44,10.72-1.26,3.4-3.39,3.33-8.92-.26-12.31-.98-1-2.16-1.7-3.4-2.14-1.9-.69-3.99-.82-5.75-.19-1.37.38-2.62,1.07-3.73,2.01-2.88,2.7-3.2,6.91-1.31,10.24l-6.01,5.84-5.75,5.53-7.26,7.03v40.24h-24.12c1.01.43,2.08.79,3.15,1.15-1.07-.36-2.14-.71-3.15-1.13-3.14-1.38-6.01-3.08-8.63-5.02-3.79-2.89-7.12-6.47-9.87-10.55-4.12-6.15-6.93-13.38-8.89-21.1v-.06h6.54c.98,3.77,4.51,6.47,8.56,6.47,4.9,0,8.89-4.02,8.89-8.92s-3.99-8.85-8.89-8.85c-4.05,0-7.58,2.64-8.56,6.47h-7.58v-.06c-1.11-5.84-1.63-12-1.63-18.21,0-1.76.13-3.39.19-5.02v-.06h14.19l5.75,5.59,13.07,12.56v16.2c-3.73,1.07-6.6,4.46-6.6,8.41,0,4.84,4.18,8.73,9.22,8.73s9.28-3.89,9.28-8.73c0-3.96-2.88-7.35-6.6-8.41v-18.28l-7.39-6.97-14.58-14h-16.15v-.06c.72-13.06,3.2-23.55,6.93-31.72l9.08,7.28.03.03h0,.02s.02.03.02.03l1.18,1.01.15.12,10.88,9.24h0s0,0,0,0c-1.96,3.39-1.57,7.6,1.37,10.36,3.53,3.39,9.28,3.27,12.88-.19,3.6-3.45,3.66-8.98.13-12.31-2.81-2.83-7.12-3.2-10.65-1.38l-.07-.13-.26-.19-21.9-19.53c1.37-2.2,2.75-4.21,4.32-6.03.65-.75,1.31-1.38,1.96-2.07,1.96-1.88,3.92-3.58,6.08-4.96,7.65-5.15,16.8-7.22,26.87-7.22s18.57,2.51,25.49,7.22c2.16,1.44,4.18,3.08,6.01,4.96.98,1.07,1.96,2.07,2.88,3.2.72.88,1.37,1.88,2.03,2.76,4.05,6.09,7.13,13.56,9.02,22.36h6.54c0-12.62.39-25.25-5.56-32.53-8.24-9.48-25.04-17.4-52.95-17.4-21.44,0-39.87,8.54-53.01,22.11-13.2,14.19-21.11,33.47-21.11,55.01s6.93,38.94,19.41,52.19c12.48,13,30.98,21.23,54.71,21.23,9.09,0,17.13-.94,24.32-2.83,2.94-.75,5.82-1.76,8.56-2.89,13.14-5.46,23.14-15.01,31.25-29.08l-7.58-5.72ZM411.51,412.59c.02.09-.03.18-.02.27-.04-.31-.08-.62-.2-.91.1.21.17.43.22.64ZM410.48,416.04c.37-.37.65-.8.83-1.26,0,0,0,0,0,0-.13.44-.39.88-.79,1.26h-.05s0,0,0,0ZM340.91,438.65c-.05-.07-.06-.16-.09-.24.17.34.37.67.64.94-.23-.23-.42-.41-.55-.7ZM346.99,439.47c-.13.19-.39.31-.52.38l-.07.06c-.2.19-.33.31-.65.38-.2.13-.52.19-.72.19-.13.06-.2.06-.33.06-.19.06-.33.06-.39.06-.26,0-.59-.06-.85-.13-.33,0-.52-.13-.72-.19,0,0-.06,0-.13-.06,0,0-.06,0-.06-.06-.07,0-.07-.06-.13-.06-.26-.13-.46-.25-.65-.5-.06,0-.13-.06-.26-.13v-.05c.71.71,1.69,1.14,2.76,1.14s2.02-.43,2.73-1.12v.03ZM347.51,438.84c-.15.14-.26.28-.39.42.25-.28.46-.59.63-.92-.07.17-.14.32-.24.51ZM348.1,437.27c0,.19-.06.31-.13.5v.06c-.04.08-.06.13-.08.2.16-.42.27-.87.27-1.35,0,.23,0,.41-.06.59ZM347.97,435.45v.06c0,.13.07.19.07.25.06.13.06.25.06.44.07.19.07.31.07.44h0c0-.5-.11-.98-.29-1.42.03.07.05.14.1.23ZM343.07,433l.06-.06c.13-.06.26-.06.33-.13.26,0,.52-.06.85-.06.26,0,.52,0,.78.06.72.13,1.37.5,1.9,1.07.2.19.33.38.52.57.12.17.23.4.3.63-.61-1.35-1.97-2.31-3.55-2.31-.45,0-.86.12-1.26.25.02,0,.04-.02.06-.02ZM340.78,434.94c.07-.19.2-.44.33-.63.06,0,.13-.06.19-.13.06-.13.13-.25.2-.31.26-.19.59-.44.92-.63.07-.03.1-.04.16-.06-.79.38-1.43,1.02-1.82,1.81.01-.01,0-.04.02-.05ZM340.39,436.08c.07-.19.13-.38.2-.57v-.06s.02-.04.03-.07c-.15.4-.26.83-.26,1.28,0,.38.12.73.22,1.08-.06-.12-.12-.29-.18-.47-.06-.19-.06-.38-.06-.63,0-.19,0-.38.06-.56ZM358.69,452.1s0,0,0,0c.02-.04.06-.07.08-.11-.02.04-.06.07-.08.12ZM360.06,456.8c-.14-.14-.26-.24-.38-.36.28.24.59.44.94.6-.18-.08-.38-.13-.56-.23ZM361.11,457.24s-.08-.04-.13-.05c.27.1.57.13.86.16-.23-.03-.46-.04-.73-.11ZM366.34,452.72c.07.13.07.25.07.44.07.19.07.31.07.5,0,1.05-.48,2-1.24,2.69.75-.69,1.21-1.65,1.21-2.71,0-.51-.12-1-.31-1.45.09.17.21.32.21.53ZM364.64,450.46c.26.13.52.25.65.5.33.25.52.63.72.94.04.05.05.16.09.23-.36-.79-1.02-1.4-1.82-1.8.1.06.26.07.35.14ZM360.85,450.08c.2-.13.39-.19.72-.19.2-.13.46-.13.79-.13.13,0,.26,0,.46.06.13-.06.2,0,.33.06.06,0,.13,0,.2.06.08,0,.12.06.2.08-.37-.11-.74-.22-1.15-.22-.55,0-1.08.11-1.56.3.02,0,.03-.03.03-.03ZM360.68,450.19c-.36.16-.68.37-.97.62.12-.13.23-.26.41-.35.17-.11.35-.2.55-.27ZM366.47,393.87c.06.09.08.19.13.28-.1-.19-.23-.37-.37-.54.08.09.18.17.24.26ZM365.36,392.8c.13.06.2.13.33.19l.07.06.08.1c-.22-.19-.47-.32-.72-.45.08.04.17.04.24.1ZM363.98,392.24c.09.03.19.09.28.12-.33-.09-.66-.17-1-.17.24,0,.48,0,.71.06ZM360.65,393.06c.13-.13.2-.19.33-.25.2-.14.45-.24.7-.34.08-.03.14-.07.22-.1.32-.1.69-.13,1.06-.15-.43.03-.87.09-1.28.26-.46.18-.88.46-1.26.81.07-.07.14-.14.24-.23ZM359.8,394c.12-.17.29-.38.47-.56-.27.28-.48.6-.65.93.06-.12.09-.26.18-.37ZM360.27,398.74c.88.85,2.07,1.14,3.24,1-.68.09-1.37.09-2.01-.15-.39-.19-.85-.44-1.24-.82-.33-.38-.59-.69-.79-1.13-.01-.04-.04-.09-.05-.13.19.45.47.87.85,1.23ZM359.28,395.07c.03-.1.1-.18.14-.28-.14.37-.23.75-.25,1.14.02-.28.06-.59.11-.86ZM359.4,397.45c-.05-.16-.1-.32-.19-.5-.06-.3-.06-.54-.06-.84,0,.46.08.91.25,1.34Z"/>
  <path class="cls-2" d="M591.54,462.17v-119.22h-28.97v63.56h-60.56v-35.42c0-10.75-.99-17.71-3.95-22.14-3.29-4.11-8.23-6-16.13-6h-26.99v6.64h2.31c13.5,0,15.8,8.54,15.8,21.51v118.9h28.96v-74h60.56v46.17c0,10.75.99,17.71,4.28,22.13,2.96,4.11,7.9,5.69,15.8,5.69h26.66v-6.32h-1.98c-13.49,0-15.8-8.85-15.8-21.5Z"/>
  <polygon class="cls-2" points="39.23 126.51 67.43 119.8 84.13 115.85 104.64 110.96 112.62 89.29 118.18 74.23 132.84 34.44 133.73 32.09 141.86 10.01 37.18 34.88 0 135.84 36.92 127.03 39.23 126.51"/>
  <path class="cls-2" d="M50.86,320.7c-1.86,0-3.64-.09-5.38-.22-21.16-1.64-33.59-13.47-37.76-41.27H1.61v25.34c0,7.92,6.44,14.57,15.77,19,7.82,3.72,17.68,6.07,27.86,6.75,1.97.13,3.95.22,5.94.22,35.09,0,54.72-15.52,54.72-40.23,0-15.84-8.69-25.66-28.65-37.06l-17.5-10.37-9.22-5.47c-7.08-3.8-12.55-7.29-16.42-11.4-4.18-4.12-6.44-8.55-6.44-14.57,0-12.99,9.66-20.91,25.43-20.91,10.46,0,19.04,2.57,25.75,8.35,7.55,6.5,12.73,17.07,15.45,32.83h6.12v-25.02c0-8.05-6.17-14.57-15.16-19-.21-.1-.4-.22-.61-.32-9.66-4.43-21.89-6.65-33.8-6.65-10.14,0-18.99,1.67-26.31,4.71-14.28,5.93-22.62,17.16-22.62,32.03,0,6.26,1.13,11.81,3.7,16.96,3.93,7.88,11.27,14.79,23.34,21.69l23.29,13.64,3.75,2.2c13.84,8.55,22.53,15.52,22.53,27.87,0,13.94-10.94,20.91-27.68,20.91Z"/>
  <path class="cls-1" d="M278.14,58.12h-.08l.12.67c7.74-.71,15.64-1.11,23.54-1.11,3.18,0,6.27.04,9.41.16l.08-.79.28-56.85c-3.22-.16-6.47-.2-9.77-.2-10.36,0-20.57.56-30.69,1.63l6.99,55.86.12.64Z"/>
  <path class="cls-1" d="M356.27,63.09l10.96-55.74c-13.42-3.02-27.12-5.16-41.05-6.31l-3.18,56.77-.08.79h-.24c11.27.95,22.47,2.74,33.31,5.28l.28-.79Z"/>
  <path class="cls-1" d="M192.58,83.33l.28.44c10.68-5.44,21.8-10.08,33.27-13.9l-.16-.56-20.6-52.92c-13.9,4.92-27.28,10.76-40.26,17.63l27.12,48.71.36.6Z"/>
  <path class="cls-1" d="M482.76,137.95c8.04,8.64,15.56,17.87,22.45,27.62l3.22-2.31,41.55-31.6c-8.4-11.9-17.55-23.2-27.38-33.83l-38.17,38.36-1.67,1.75Z"/>
  <path class="cls-1" d="M397.04,77.34l.44-.71,21.2-52.37c-12.11-5.24-24.5-9.69-37.32-13.26l-13.62,54.59-.08.44h-.04l-.24.75-.48-.08c10.32,2.9,20.37,6.47,30.13,10.64Z"/>
  <path class="cls-1" d="M512.69,175.08l-.6.48c4.97,7.64,9.59,15.6,13.85,23.8l.08-.32,3.86-8.91,3.78-8.4h10.03l.44.99,4.7,12.18,2.11,5.33.44-.24,29.17-15.16c-6.57-14.37-14.13-28.1-22.49-41.15l-44.97,31.16-.4.24Z"/>
  <path class="cls-1" d="M219.18,11.95l16.56,49.75,1.39,4.17.2.6c9.49-2.66,19.18-4.72,29.02-6.15l-.08-.71-9.53-56.06c-12.82,1.99-25.29,4.76-37.56,8.42Z"/>
  <path class="cls-1" d="M116.03,143.2s.04-.04.08-.08l-1.23-.99-20.57-16.08-15.13,3.61-25.69,6.11-2.14.52c-1.23,1.79-2.46,3.65-3.61,5.48l47.13,28.43.12.04c4.21-6.19,8.61-12.15,13.3-17.83,2.5-3.14,5.12-6.23,7.74-9.21Z"/>
  <path class="cls-1" d="M438.57,99.13l.28-.44,29.93-46.89c-11.79-8.06-24.14-15.25-36.96-21.52l-23.5,50.78-.2.44-.44.75c10.52,5.12,20.64,10.96,30.37,17.55l.52-.67Z"/>
  <path class="cls-1" d="M124.65,133.6l-.04.04.2.16c4.88-4.96,9.93-9.73,15.13-14.29,2.94-2.58,5.92-5.08,9.01-7.46l-.2-.36-.36-.44-21.16-24.46-.08-.04-6.11,13.1-8.89,18.7-1.71,3.73,13.42,10.68.79.64Z"/>
  <path class="cls-1" d="M480.3,59.63l-31.64,44.69-.16.24-1.03,1.67c9.31,6.96,18.15,14.61,26.55,22.76l.56-.52.28-.28,37.89-40.51c-10.19-10.15-21.05-19.5-32.44-28.06Z"/>
  <path class="cls-1" d="M133.58,74.44l24.14,29.26h.04l.83,1.03c7.62-5.52,15.48-10.68,23.7-15.25l-1.55-2.58-28.39-45.74c-3.61,2.54-20.05,31.76-20.05,31.76l1.27,1.51Z"/>
  <path class="cls-2" d="M269.2,59.12c-1.03.16-1.99.32-2.94.48l.08.04,2.86-.52Z"/>
  <path class="cls-1" d="M555.79,212.3l6.59,16.4,4.92,12.19,3.22,7.98,29.54-9.97c-3.73-14.02-8.34-27.63-13.74-40.78l-30.1,13.98-.44.2Z"/>
  <path class="cls-1" d="M581.29,275.63l5.16,12.82,6.11,15.29c4.57,11.36,11.12,17.03,19.45,19.34-.48-23.9-3.34-47.17-8.34-69.52l-28.07,7.98,5.68,14.1Z"/>
  <path class="cls-1" d="M56.36,174.05c1.49.09,2.98.18,4.51.31.09,0,.13.04.22.04h.05c1.05.13,2.06.26,3.15.44,1.66.22,3.33.53,4.99.88.79.17,1.45.31,2.15.48.7.13,1.36.31,2.01.53,1.18.26,2.41.61,3.55.96.96.31,2.01.66,2.98,1.05.57.18,1.14.44,1.71.61,1.05.39,2.01.83,2.98,1.31.22.04,2.19,1.62,2.45,1.66.74-1.31.61-1.05.92-1.53l-2.01-1.18-.05-.04-17.39-9.59-.05-.04h-.04l-28.91-15.11c-5.47,9.11-10.47,14.15-15.07,23.87,7.36-3.15,16.2-4.86,26.37-4.86,1.84,0,3.63.04,5.48.22Z"/>
  <path class="cls-2" d="M586.85,303.24l-5.44-13.46-4.57-11.39-6.15-15.27h0s-4.99-12.44-4.99-12.44h-.02s0,0,0,0v-.04l-1.19-2.98-4.37-10.8-8.89-22.07h0s-.96-2.39-.96-2.39l-2.19-5.48-1.39-4.09-2.9-8.58-.36-.91h-8.89l-3.41,9.49-3.14,7.78-.16.32-50.66,117.52h10.28l16-40.3h51.37l1.31,4.41,3.26,10.68c3.45,11.51,10.84,17.47,17.98,20.92,6.63,3.41,18.14,7.98,24.46,7.98,1.79,0,4.25-.28,6.39-.6,0-2.02-.04-3.97-.12-5.99-7.35-2.06-17.31-8.58-21.28-22.31ZM507.45,279.62l22.55-50.86,21.48,50.86h-44.03Z"/>
</svg>